<svg xmlns="http://www.w3.org/2000/svg" viewBox="0 0 432 107.6"><defs><clipPath id="a"><path d="M66.67 0v58.33H125A58.34 58.34 0 0 0 66.67 0zm-8.34 8.33a58.34 58.34 0 0 0-47.71 91.9L0 125l24.77-10.62a58.34 58.34 0 0 0 91.9-47.71H58.33zM31.77 64.58a16.15 16.15 0 1 1 6.91-30.72h-.14A8.86 8.86 0 1 0 47.29 44a16.1 16.1 0 0 1-15.52 20.58z" style="fill:none"/></clipPath></defs><path d="M4.5 624c26.37-11.61 117.5-49.99 118.7-49.98.914 0 6.314 2.951 12 6.557 36.2 22.96 79.69 38.54 119.8 42.93 9.736 1.066-8.743 1.268-120.5 1.317-76.9.034-131.2-.31-130-.823zm323.8-.52c50.99-5.558 104.5-28.24 146.7-62.13 18.77-15.09 39.86-37.47 54.32-57.64 33.13-46.21 52.98-104.1 53.94-157.2l.235-13-291-1-1-291-4-.343c-5.773-.495-30.04 1.688-43.9 3.949-55.08 8.984-106.4 33.97-149.1 72.63-51.9 46.96-86.41 114.8-92.99 182.8-1.066 11.01-1.277-11.01-1.383-143.8L-.003-.054h333v145.4c0 115.3.26 145.6 1.25 146.2 1.406.896 288.4.677 289.8-.221 1.234-.762 1.184-14.7-.097-27.6-8.353-84.08-51.65-159.5-120-209-40.54-29.36-166-93.45-138.1-53.25 293.3 422.8 1114-1.516 1060-1.51l1074-.119c713.4 241.4-2759 1095-2172 623.5zM.2 488.48c.036-114.8.23-133.1 1.3-122 1.59 16.45 2.683 22.44 7.472 41 7.788 30.17 20.42 59.08 36.66 83.86 5.666 8.647 6.356 10.21 5.538 12.51-.706 1.986-39.8 93.7-49.5 116.1C.309 623.097.161 609.84.199 488.45zm148-166.5c-8.513-1.182-17.98-4.374-27.66-9.324-10.72-5.481-25.39-19.82-31.37-30.66-6.869-12.44-9.3-21.44-9.878-36.54-.423-11.06-.178-14.33 1.61-21.5 2.658-10.66 9.537-24.62 16.08-32.65 9.972-12.23 27.26-23.18 42.55-26.96 13.56-3.35 38.04-1.877 46.81 2.817 2.438 1.305 2.037 1.59-4.691 3.343-8.217 2.14-13.27 5.009-19.82 11.26-24.21 23.1-14.54 64.65 17.3 74.32 10.51 3.192 22.96 2.475 32.21-1.856 9.33-4.37 17.73-12.88 22.16-22.46 3.315-7.157 3.386-7.23 4.203-4.283 1.531 5.52.914 27.47-.97 34.5-4.969 18.55-17.35 36.15-32.97 46.85-15.11 10.36-37.48 15.64-55.57 13.13z" style="fill:#fdfdfd" transform="translate(-147.426 1563.5)"/><g transform="matrix(.1717 0 0 .1724 1.678 155.4)"><path d="M849.4-656.1c-.369-.369-.671-20.62-.671-45v-44.33h225l-.52 89.5-111.6.254c-61.37.14-111.9-.047-112.2-.416z" style="fill:#0365b2"/><path d="M1309-650.5v-83h89v166h-89zM1203-650.5v-83h89v166h-89z" style="fill:#4dc1f0"/><path d="M2407-650.5v-84h90v168h-90zM2301-650.5v-84h89v168h-89z" style="fill:#db082d"/><path d="m1555-533 .26-44.9 8.5-.624c13.1-.962 19.47-3.238 25.84-9.234 8.144-7.668 10.12-16.61 10.14-45.89l.017-21.75h-179v-90h179v-22h90v22h45v90h-44.79l-.474 31.25c-.354 23.34-.895 33.47-2.14 40.01-11.74 61.75-49.82 92.45-118.4 95.42l-14.26.619z" style="fill:#009c4e"/><path d="M2296-367.6c-3.85-.49-11.53-1.979-17.06-3.309-45.98-11.05-73.17-40.34-82.67-89.05-2.124-10.89-2.149-12.46-2.492-159.2l-.347-148.2h90.02l.273 141.8.273 141.8 2.33 6.877c3.217 9.5 9.303 15.58 18.79 18.78l6.876 2.32 184.5.598v88.92l-96.75-.127c-53.21-.07-99.9-.527-103.8-1.017z" style="fill:#db082d"/><path d="M1757-567v-200.5h90v47.61c0 44.95.098 47.57 1.75 46.89 9.119-3.747 25.57-5.493 51.75-5.493 31.86 0 48.2 2.231 66.4 9.067 13.92 5.23 23.96 11.62 33.6 21.37 8.76 8.863 13.94 16.91 18.54 28.83 6.219 16.1 6.191 15.77 6.854 81.34l.608 60.1 3.5 6.776c4.15 8.036 8.798 11.76 17.46 13.98 14.24 3.659 30.39.608 37.74-7.129 5.119-5.39 7.144-11.75 7.75-24.34l.553-11.5 89.5-.52v22.26c0 12.24-.497 26.31-1.1 31.26-5.64 46.2-30.37 72.3-74.9 79.05-13.87 2.103-80.27 2.041-94.62-.089-36.71-5.45-60.41-24.64-70.31-56.91-4.994-16.28-5.317-20.64-6.007-81.05-.647-56.65-.666-57.04-2.989-62.91-3.06-7.735-9.032-13.68-16.56-16.5-11.32-4.237-35.04-4.553-48.08-.641-9.124 2.737-15.6 9.493-19.21 20.05-1.56 4.56-1.735 13.55-1.99 102.2l-.279 97.25h-89.95v-200.5z" style="fill:#ef7a03"/><path d="M1522-367.6c-47.01-6.016-79.97-31.31-93.52-71.75-6.924-20.67-7.191-23.39-7.697-78.36l-.458-49.76 89.68.52.55 42c.603 46.02.832 47.9 6.851 56.2 3.813 5.265 7.89 8.084 15.44 10.68 6.084 2.092 7.343 2.12 103.9 2.4l97.75.283v88.93l-102.8-.127c-56.51-.07-105.9-.53-109.8-1.022z" style="fill:#009c4e"/><path d="M1207-367.2c-9.701-.881-29.35-4.659-36.35-6.991-31.18-10.37-52.34-29.69-64.04-58.47-3.944-9.7-6.07-17.4-8.794-31.84-1.413-7.49-1.652-25.99-2.011-155.8l-.408-147.2h89.11l.02 137.2c.012 85.18.396 139.9 1.011 144.2 1.243 8.783 5.871 18.45 10.76 22.48 2.038 1.681 6.18 4.059 9.205 5.286l5.5 2.23 186.5.55v88.95l-93.25-.168c-51.29-.093-95.05-.332-97.25-.532z" style="fill:#4dc1f0"/><path d="M932.7-367.1c-53.82-5.764-88.74-34.28-101.1-82.53-3.832-15.01-4.943-29.17-4.943-62.99v-31.79h90l.017 27.75c.02 30.39.936 38.08 5.453 45.79 3.511 5.991 8.897 10.14 16.53 12.72 6.388 2.163 7.603 2.206 70.75 2.518l64.25.317v88.9l-68.75-.16c-37.81-.088-70.32-.329-72.25-.535zM714.7-567v-200.5h90v401h-90z" style="fill:#0365b2"/><ellipse cx="155.2" cy="-656.1" rx="92.14" ry="90.91" style="fill:#fff;stroke-width:4.988"/><g clip-path="url(#a)" transform="matrix(5.022 0 0 4.954 -9.943 -895)"><path d="M66.67 8.33a50 50 0 0 1 50 50H125A58.34 58.34 0 0 0 66.67 0z" style="fill:#db062c"/><path d="M66.67 16.67a41.66 41.66 0 0 1 41.66 41.66h8.34a50 50 0 0 0-50-50z" style="fill:#ef7a00"/><path d="M66.67 25A33.33 33.33 0 0 1 100 58.33h8.33a41.66 41.66 0 0 0-41.66-41.66z" style="fill:#f3eb1c"/><path d="M66.67 33.33a25 25 0 0 1 25 25H100A33.33 33.33 0 0 0 66.67 25z" style="fill:#009c4d"/><path d="M66.67 41.67a16.66 16.66 0 0 1 16.66 16.66h8.34a25 25 0 0 0-25-25z" style="fill:#4fc2f1"/><path d="M66.67 50A8.33 8.33 0 0 1 75 58.33h8.33a16.66 16.66 0 0 0-16.66-16.66z" style="fill:#0065b2"/><path d="M66.67 58.33H75A8.33 8.33 0 0 0 66.67 50z" style="fill:#643791"/><path d="M58.33 66.67V8.33a58.34 58.34 0 0 0-47.71 91.9L0 125l24.77-10.62a58.34 58.34 0 0 0 91.9-47.71zm-26.56-2.09a16.15 16.15 0 1 1 6.91-30.72h-.14A8.86 8.86 0 1 0 47.29 44a16.1 16.1 0 0 1-15.52 20.58z" style="fill:#2d4b71"/></g></g></svg>